<svg width="20" height="20" viewBox="0 0 20 20" fill="none" xmlns="http://www.w3.org/2000/svg">
<path d="M9.21875 3.40625L10 4.6875L10.75 3.40625C11.25 2.53125 12.1562 2 13.1562 2H13.25C14.75 2 16 3.25 16 4.75C16 5.21875 15.875 5.625 15.6875 6H16.5C17.3125 6 18 6.6875 18 7.5V9.5C18 10.1562 17.5625 10.7188 17 10.9375V11V16C17 17.125 16.0938 18 15 18H5C3.875 18 3 17.125 3 16V11V10.9375C2.40625 10.7188 2 10.1562 2 9.5V7.5C2 6.6875 2.65625 6 3.5 6H4.28125C4.09375 5.625 4 5.21875 4 4.75C4 3.25 5.21875 2 6.75 2H6.8125C7.8125 2 8.71875 2.53125 9.21875 3.40625ZM16.5 7.5H13.25H11V9.5H15.5H16.5V7.5ZM9 7.5H6.75H3.5V9.5H4.5H9V7.5ZM9 11H4.5V16C4.5 16.2812 4.71875 16.5 5 16.5H9V11ZM11 16.5H15C15.25 16.5 15.5 16.2812 15.5 16V11H11V16.5ZM13.25 6C13.9375 6 14.5 5.46875 14.5 4.75C14.5 4.0625 13.9375 3.5 13.25 3.5H13.1562C12.6875 3.5 12.2812 3.75 12.0312 4.15625L10.9375 6H11H13.25ZM9 6H9.03125L7.9375 4.15625C7.71875 3.75 7.28125 3.5 6.8125 3.5H6.75C6.03125 3.5 5.5 4.0625 5.5 4.75C5.5 5.46875 6.03125 6 6.75 6H9Z" fill="#04C8B6"/>
</svg>
