<svg width="168" height="17" viewBox="0 0 168 17" fill="none" xmlns="http://www.w3.org/2000/svg">
<g id="Group 1">
<g id="Group">
<g id="Vector">
<path d="M47.6136 15.7573L42.8213 1.29664C42.7595 1.11484 42.5922 0.991211 42.3995 0.991211H36.2437C36.0546 0.991211 35.8837 1.1112 35.8219 1.29664L30.9895 15.7573C30.8914 16.0445 31.1059 16.3427 31.4113 16.3427H34.062C39.2252 16.3427 39.2507 11.5612 39.2507 11.5612H39.367C39.367 11.5612 39.3925 16.3427 44.5557 16.3427H47.1955C47.4973 16.3427 47.7118 16.0445 47.6173 15.7573H47.6136ZM40.9669 8.98328L39.6288 10.3213C39.4507 10.4995 39.1634 10.4995 38.9889 10.3213L37.6508 8.98328C37.4726 8.80511 37.4726 8.5215 37.6508 8.34333L38.9889 7.00526C39.167 6.82709 39.4543 6.82709 39.6288 7.00526L40.9669 8.34333C41.1451 8.5215 41.1451 8.80511 40.9669 8.98328Z" fill="#363636"/>
<path d="M47.6136 15.7573L42.8213 1.29664C42.7595 1.11484 42.5922 0.991211 42.3995 0.991211H36.2437C36.0546 0.991211 35.8837 1.1112 35.8219 1.29664L30.9895 15.7573C30.8914 16.0445 31.1059 16.3427 31.4113 16.3427H34.062C39.2252 16.3427 39.2507 11.5612 39.2507 11.5612H39.367C39.367 11.5612 39.3925 16.3427 44.5557 16.3427H47.1955C47.4973 16.3427 47.7118 16.0445 47.6173 15.7573H47.6136ZM40.9669 8.98328L39.6288 10.3213C39.4507 10.4995 39.1634 10.4995 38.9889 10.3213L37.6508 8.98328C37.4726 8.80511 37.4726 8.5215 37.6508 8.34333L38.9889 7.00526C39.167 6.82709 39.4543 6.82709 39.6288 7.00526L40.9669 8.34333C41.1451 8.5215 41.1451 8.80511 40.9669 8.98328Z" fill="#666666"/>
</g>
<g id="Vector_2">
<path d="M0.864899 1.43481C0.864899 1.19119 1.06488 0.991211 1.3085 0.991211H9.28602C13.7802 0.991211 15.6455 2.63471 15.6455 5.41994C15.6455 8.20516 13.5402 9.4996 11.0204 9.69595V9.73958C13.5184 9.95774 14.7474 10.7468 15.2746 12.3503L16.4345 15.7536C16.5327 16.0409 16.3182 16.339 16.0164 16.339H11.0931C10.8968 16.339 10.7223 16.2081 10.6677 16.0191L9.86052 13.2484C9.46419 11.8885 8.74061 11.2304 7.29346 11.2304H6.79532C6.5517 11.2304 6.35172 11.4303 6.35172 11.674V15.8954C6.35172 16.139 6.15173 16.339 5.90812 16.339H1.3085C1.06488 16.339 0.864899 16.139 0.864899 15.8954V1.43481ZM10.2059 6.69256C10.2059 5.57265 9.54782 5.09269 8.12248 5.09269H6.78805C6.54443 5.09269 6.34445 5.29267 6.34445 5.53629V7.87428C6.34445 8.11789 6.54443 8.31788 6.78805 8.31788H8.07885C9.50418 8.31788 10.2059 7.81246 10.2059 6.69619V6.69256Z" fill="#363636"/>
<path d="M0.864899 1.43481C0.864899 1.19119 1.06488 0.991211 1.3085 0.991211H9.28602C13.7802 0.991211 15.6455 2.63471 15.6455 5.41994C15.6455 8.20516 13.5402 9.4996 11.0204 9.69595V9.73958C13.5184 9.95774 14.7474 10.7468 15.2746 12.3503L16.4345 15.7536C16.5327 16.0409 16.3182 16.339 16.0164 16.339H11.0931C10.8968 16.339 10.7223 16.2081 10.6677 16.0191L9.86052 13.2484C9.46419 11.8885 8.74061 11.2304 7.29346 11.2304H6.79532C6.5517 11.2304 6.35172 11.4303 6.35172 11.674V15.8954C6.35172 16.139 6.15173 16.339 5.90812 16.339H1.3085C1.06488 16.339 0.864899 16.139 0.864899 15.8954V1.43481ZM10.2059 6.69256C10.2059 5.57265 9.54782 5.09269 8.12248 5.09269H6.78805C6.54443 5.09269 6.34445 5.29267 6.34445 5.53629V7.87428C6.34445 8.11789 6.54443 8.31788 6.78805 8.31788H8.07885C9.50418 8.31788 10.2059 7.81246 10.2059 6.69619V6.69256Z" fill="#666666"/>
</g>
<g id="Vector_3">
<path d="M18.169 0.991211H29.5172C29.7608 0.991211 29.9608 1.19119 29.9608 1.43481V4.49638C29.9608 4.73999 29.7608 4.93998 29.5172 4.93998H23.6486C23.405 4.93998 23.205 5.13996 23.205 5.38357V6.60166C23.205 6.84527 23.405 7.04526 23.6486 7.04526H28.9463C29.1899 7.04526 29.3899 7.24524 29.3899 7.48886V9.84866C29.3899 10.0923 29.1899 10.2923 28.9463 10.2923H23.6486C23.405 10.2923 23.205 10.4922 23.205 10.7359V11.9539C23.205 12.1976 23.405 12.3975 23.6486 12.3975H29.5172C29.7608 12.3975 29.9608 12.5975 29.9608 12.8411V15.9027C29.9608 16.1463 29.7608 16.3463 29.5172 16.3463H18.169C17.9254 16.3463 17.7254 16.1463 17.7254 15.9027V1.43481C17.7254 1.19119 17.9254 0.991211 18.169 0.991211Z" fill="#363636"/>
<path d="M18.169 0.991211H29.5172C29.7608 0.991211 29.9608 1.19119 29.9608 1.43481V4.49638C29.9608 4.73999 29.7608 4.93998 29.5172 4.93998H23.6486C23.405 4.93998 23.205 5.13996 23.205 5.38357V6.60166C23.205 6.84527 23.405 7.04526 23.6486 7.04526H28.9463C29.1899 7.04526 29.3899 7.24524 29.3899 7.48886V9.84866C29.3899 10.0923 29.1899 10.2923 28.9463 10.2923H23.6486C23.405 10.2923 23.205 10.4922 23.205 10.7359V11.9539C23.205 12.1976 23.405 12.3975 23.6486 12.3975H29.5172C29.7608 12.3975 29.9608 12.5975 29.9608 12.8411V15.9027C29.9608 16.1463 29.7608 16.3463 29.5172 16.3463H18.169C17.9254 16.3463 17.7254 16.1463 17.7254 15.9027V1.43481C17.7254 1.19119 17.9254 0.991211 18.169 0.991211Z" fill="#666666"/>
</g>
<g id="Vector_4">
<path d="M48.7045 1.43481C48.7045 1.19119 48.9044 0.991211 49.1481 0.991211H56.0057C61.8597 0.991211 65.0158 3.71099 65.0158 8.66694C65.0158 13.6229 61.8597 16.3427 56.0057 16.3427H49.1481C48.9044 16.3427 48.7045 16.1427 48.7045 15.8991V1.43481ZM59.34 8.6633C59.34 6.64529 58.3546 5.769 56.1184 5.769H54.6312C54.3876 5.769 54.1876 5.96898 54.1876 6.2126V11.114C54.1876 11.3576 54.3876 11.5576 54.6312 11.5576H56.1184C58.3546 11.5576 59.34 10.6813 59.34 8.6633Z" fill="#363636"/>
<path d="M48.7045 1.43481C48.7045 1.19119 48.9044 0.991211 49.1481 0.991211H56.0057C61.8597 0.991211 65.0158 3.71099 65.0158 8.66694C65.0158 13.6229 61.8597 16.3427 56.0057 16.3427H49.1481C48.9044 16.3427 48.7045 16.1427 48.7045 15.8991V1.43481ZM59.34 8.6633C59.34 6.64529 58.3546 5.769 56.1184 5.769H54.6312C54.3876 5.769 54.1876 5.96898 54.1876 6.2126V11.114C54.1876 11.3576 54.3876 11.5576 54.6312 11.5576H56.1184C58.3546 11.5576 59.34 10.6813 59.34 8.6633Z" fill="#666666"/>
</g>
<g id="Vector_5">
<path d="M69.3534 9.97956L63.9684 1.67479C63.7757 1.38027 63.9902 0.991211 64.3393 0.991211H69.0662C69.2189 0.991211 69.3643 1.0712 69.4443 1.2021L71.8769 5.15814C72.0514 5.43812 72.4586 5.43812 72.6332 5.15814L75.0657 1.2021C75.1457 1.0712 75.2875 0.991211 75.4438 0.991211H79.9526C80.3016 0.991211 80.5161 1.38027 80.3234 1.67479L74.9784 9.98319C74.9312 10.0559 74.9093 10.1395 74.9093 10.2232V15.8991C74.9093 16.1427 74.7094 16.3427 74.4657 16.3427H69.8698C69.6261 16.3427 69.4262 16.1427 69.4262 15.8991V10.2232C69.4262 10.1359 69.4007 10.0523 69.3534 9.98319V9.97956Z" fill="#363636"/>
<path d="M69.3534 9.97956L63.9684 1.67479C63.7757 1.38027 63.9902 0.991211 64.3393 0.991211H69.0662C69.2189 0.991211 69.3643 1.0712 69.4443 1.2021L71.8769 5.15814C72.0514 5.43812 72.4586 5.43812 72.6332 5.15814L75.0657 1.2021C75.1457 1.0712 75.2875 0.991211 75.4438 0.991211H79.9526C80.3016 0.991211 80.5161 1.38027 80.3234 1.67479L74.9784 9.98319C74.9312 10.0559 74.9093 10.1395 74.9093 10.2232V15.8991C74.9093 16.1427 74.7094 16.3427 74.4657 16.3427H69.8698C69.6261 16.3427 69.4262 16.1427 69.4262 15.8991V10.2232C69.4262 10.1359 69.4007 10.0523 69.3534 9.98319V9.97956Z" fill="#666666"/>
</g>
<g id="Group_2">
<g id="Vector_6">
<path d="M91.4535 5.77263H87.6465C87.4029 5.77263 87.2029 5.57265 87.2029 5.32903V1.43481C87.2029 1.19119 87.4029 0.991211 87.6465 0.991211H101.605C101.849 0.991211 102.049 1.19119 102.049 1.43481V5.32903C102.049 5.57265 101.849 5.77263 101.605 5.77263H97.7984C97.5548 5.77263 97.3548 5.97262 97.3548 6.21623V15.8991C97.3548 16.1427 97.1548 16.3427 96.9112 16.3427H92.3371C92.0935 16.3427 91.8935 16.1427 91.8935 15.8991V6.21623C91.8935 5.97262 91.6935 5.77263 91.4499 5.77263H91.4535Z" fill="#363636"/>
<path d="M91.4535 5.77263H87.6465C87.4029 5.77263 87.2029 5.57265 87.2029 5.32903V1.43481C87.2029 1.19119 87.4029 0.991211 87.6465 0.991211H101.605C101.849 0.991211 102.049 1.19119 102.049 1.43481V5.32903C102.049 5.57265 101.849 5.77263 101.605 5.77263H97.7984C97.5548 5.77263 97.3548 5.97262 97.3548 6.21623V15.8991C97.3548 16.1427 97.1548 16.3427 96.9112 16.3427H92.3371C92.0935 16.3427 91.8935 16.1427 91.8935 15.8991V6.21623C91.8935 5.97262 91.6935 5.77263 91.4499 5.77263H91.4535Z" fill="#666666"/>
</g>
<g id="Vector_7">
<path d="M102.642 8.66329C102.642 3.90368 106.325 0.682129 111.412 0.682129C116.499 0.682129 120.204 3.90368 120.204 8.66329C120.204 13.4229 116.521 16.6444 111.412 16.6444C106.303 16.6444 102.642 13.4447 102.642 8.66329ZM114.524 8.68874C114.524 6.60528 113.23 5.46719 111.412 5.46719C109.594 5.46719 108.321 6.60891 108.321 8.68874C108.321 10.7686 109.616 11.8448 111.412 11.8448C113.208 11.8448 114.524 10.7031 114.524 8.68874Z" fill="#363636"/>
<path d="M102.642 8.66329C102.642 3.90368 106.325 0.682129 111.412 0.682129C116.499 0.682129 120.204 3.90368 120.204 8.66329C120.204 13.4229 116.521 16.6444 111.412 16.6444C106.303 16.6444 102.642 13.4447 102.642 8.66329ZM114.524 8.68874C114.524 6.60528 113.23 5.46719 111.412 5.46719C109.594 5.46719 108.321 6.60891 108.321 8.68874C108.321 10.7686 109.616 11.8448 111.412 11.8448C113.208 11.8448 114.524 10.7031 114.524 8.68874Z" fill="#666666"/>
</g>
</g>
<g id="Vector_8">
<path d="M165.687 1.15479C166.084 1.15479 166.466 1.25296 166.829 1.45294C167.193 1.65293 167.48 1.93654 167.687 2.30742C167.895 2.6783 168 3.06735 168 3.47096C168 3.87456 167.898 4.25635 167.695 4.62359C167.491 4.99083 167.204 5.27444 166.84 5.47806C166.473 5.68168 166.091 5.78349 165.687 5.78349C165.284 5.78349 164.902 5.68168 164.535 5.47806C164.168 5.27444 163.884 4.9872 163.68 4.62359C163.477 4.25635 163.375 3.87456 163.375 3.47096C163.375 3.06735 163.48 2.6783 163.688 2.30742C163.895 1.93654 164.182 1.65293 164.546 1.45294C164.909 1.25296 165.291 1.15479 165.687 1.15479ZM165.691 1.60929C165.371 1.60929 165.069 1.68929 164.775 1.84927C164.484 2.00926 164.251 2.23833 164.084 2.53649C163.917 2.83465 163.833 3.14735 163.833 3.47459C163.833 3.80184 163.917 4.10727 164.08 4.40179C164.244 4.69631 164.473 4.92538 164.768 5.089C165.062 5.25263 165.371 5.33626 165.691 5.33626C166.011 5.33626 166.324 5.25263 166.618 5.089C166.913 4.92538 167.142 4.69267 167.306 4.40179C167.469 4.1109 167.553 3.7982 167.553 3.47459C167.553 3.15098 167.469 2.83465 167.302 2.53649C167.135 2.23833 166.902 2.00926 166.611 1.84927C166.317 1.68929 166.011 1.60929 165.695 1.60929H165.691ZM164.644 4.70722V2.24924H165.142C165.611 2.24924 165.873 2.24924 165.927 2.25651C166.091 2.27106 166.222 2.30378 166.313 2.35469C166.404 2.40559 166.48 2.48558 166.542 2.59103C166.604 2.69648 166.633 2.81283 166.633 2.94373C166.633 3.1219 166.575 3.27097 166.458 3.39824C166.342 3.5255 166.178 3.60186 165.971 3.63094C166.047 3.66003 166.102 3.68912 166.142 3.72185C166.182 3.75457 166.237 3.81638 166.309 3.91092C166.327 3.93637 166.389 4.03455 166.491 4.20908L166.782 4.70358H166.167L165.96 4.30362C165.822 4.03455 165.706 3.86729 165.615 3.7982C165.524 3.72912 165.411 3.69276 165.269 3.69276H165.138V4.70358H164.64L164.644 4.70722ZM165.142 3.31097H165.346C165.633 3.31097 165.811 3.30006 165.88 3.27825C165.949 3.25643 166.004 3.21643 166.044 3.16189C166.084 3.10735 166.106 3.0419 166.106 2.97282C166.106 2.90373 166.087 2.84192 166.047 2.79101C166.007 2.73647 165.953 2.70011 165.88 2.67466C165.807 2.65284 165.629 2.6383 165.346 2.6383H165.142V3.30733V3.31097Z" fill="#363636"/>
<path d="M165.687 1.15479C166.084 1.15479 166.466 1.25296 166.829 1.45294C167.193 1.65293 167.48 1.93654 167.687 2.30742C167.895 2.6783 168 3.06735 168 3.47096C168 3.87456 167.898 4.25635 167.695 4.62359C167.491 4.99083 167.204 5.27444 166.84 5.47806C166.473 5.68168 166.091 5.78349 165.687 5.78349C165.284 5.78349 164.902 5.68168 164.535 5.47806C164.168 5.27444 163.884 4.9872 163.68 4.62359C163.477 4.25635 163.375 3.87456 163.375 3.47096C163.375 3.06735 163.48 2.6783 163.688 2.30742C163.895 1.93654 164.182 1.65293 164.546 1.45294C164.909 1.25296 165.291 1.15479 165.687 1.15479ZM165.691 1.60929C165.371 1.60929 165.069 1.68929 164.775 1.84927C164.484 2.00926 164.251 2.23833 164.084 2.53649C163.917 2.83465 163.833 3.14735 163.833 3.47459C163.833 3.80184 163.917 4.10727 164.08 4.40179C164.244 4.69631 164.473 4.92538 164.768 5.089C165.062 5.25263 165.371 5.33626 165.691 5.33626C166.011 5.33626 166.324 5.25263 166.618 5.089C166.913 4.92538 167.142 4.69267 167.306 4.40179C167.469 4.1109 167.553 3.7982 167.553 3.47459C167.553 3.15098 167.469 2.83465 167.302 2.53649C167.135 2.23833 166.902 2.00926 166.611 1.84927C166.317 1.68929 166.011 1.60929 165.695 1.60929H165.691ZM164.644 4.70722V2.24924H165.142C165.611 2.24924 165.873 2.24924 165.927 2.25651C166.091 2.27106 166.222 2.30378 166.313 2.35469C166.404 2.40559 166.48 2.48558 166.542 2.59103C166.604 2.69648 166.633 2.81283 166.633 2.94373C166.633 3.1219 166.575 3.27097 166.458 3.39824C166.342 3.5255 166.178 3.60186 165.971 3.63094C166.047 3.66003 166.102 3.68912 166.142 3.72185C166.182 3.75457 166.237 3.81638 166.309 3.91092C166.327 3.93637 166.389 4.03455 166.491 4.20908L166.782 4.70358H166.167L165.96 4.30362C165.822 4.03455 165.706 3.86729 165.615 3.7982C165.524 3.72912 165.411 3.69276 165.269 3.69276H165.138V4.70358H164.64L164.644 4.70722ZM165.142 3.31097H165.346C165.633 3.31097 165.811 3.30006 165.88 3.27825C165.949 3.25643 166.004 3.21643 166.044 3.16189C166.084 3.10735 166.106 3.0419 166.106 2.97282C166.106 2.90373 166.087 2.84192 166.047 2.79101C166.007 2.73647 165.953 2.70011 165.88 2.67466C165.807 2.65284 165.629 2.6383 165.346 2.6383H165.142V3.30733V3.31097Z" fill="#666666"/>
</g>
<g id="Vector_9">
<path d="M136.69 5.46333C138.366 5.46333 140.173 5.64877 142.249 6.07419C142.526 6.12873 142.784 5.92148 142.784 5.6415V1.84181C142.784 1.6382 142.646 1.46003 142.446 1.41276C140.322 0.900075 138.406 0.685547 136.428 0.685547C130.439 0.685547 127.152 3.66712 127.152 9.10303C127.152 13.8408 129.389 16.4261 133.137 16.6442C136.977 16.866 138.351 16.0625 138.915 15.4443V15.8407C138.919 16.077 139.111 16.2697 139.351 16.2697H142.351C142.591 16.2697 142.784 16.077 142.784 15.837V7.53225C142.784 7.30682 142.602 7.12865 142.38 7.12865H134.934C134.708 7.12865 134.53 7.31045 134.53 7.53225V9.95387C134.53 10.1793 134.712 10.3575 134.934 10.3575H137.704V10.5247C137.704 11.9719 137.024 12.2555 135.457 12.2555C132.916 12.2555 132.836 10.7393 132.836 8.76851C132.836 6.59778 133.974 5.45606 136.693 5.45606L136.69 5.46333Z" fill="#363636"/>
<path d="M136.69 5.46333C138.366 5.46333 140.173 5.64877 142.249 6.07419C142.526 6.12873 142.784 5.92148 142.784 5.6415V1.84181C142.784 1.6382 142.646 1.46003 142.446 1.41276C140.322 0.900075 138.406 0.685547 136.428 0.685547C130.439 0.685547 127.152 3.66712 127.152 9.10303C127.152 13.8408 129.389 16.4261 133.137 16.6442C136.977 16.866 138.351 16.0625 138.915 15.4443V15.8407C138.919 16.077 139.111 16.2697 139.351 16.2697H142.351C142.591 16.2697 142.784 16.077 142.784 15.837V7.53225C142.784 7.30682 142.602 7.12865 142.38 7.12865H134.934C134.708 7.12865 134.53 7.31045 134.53 7.53225V9.95387C134.53 10.1793 134.712 10.3575 134.934 10.3575H137.704V10.5247C137.704 11.9719 137.024 12.2555 135.457 12.2555C132.916 12.2555 132.836 10.7393 132.836 8.76851C132.836 6.59778 133.974 5.45606 136.693 5.45606L136.69 5.46333Z" fill="#666666"/>
</g>
<g id="Vector_10">
<path d="M145.177 8.68526C145.177 3.92565 148.86 0.704102 153.947 0.704102C159.034 0.704102 162.739 3.92565 162.739 8.68526C162.739 13.4449 159.056 16.6664 153.947 16.6664C148.838 16.6664 145.177 13.4667 145.177 8.68526ZM157.063 8.70708C157.063 6.62361 155.769 5.48552 153.951 5.48552C152.132 5.48552 150.86 6.62725 150.86 8.70708C150.86 10.7869 152.154 11.8632 153.951 11.8632C155.747 11.8632 157.063 10.7215 157.063 8.70708Z" fill="#363636"/>
<path d="M145.177 8.68526C145.177 3.92565 148.86 0.704102 153.947 0.704102C159.034 0.704102 162.739 3.92565 162.739 8.68526C162.739 13.4449 159.056 16.6664 153.947 16.6664C148.838 16.6664 145.177 13.4667 145.177 8.68526ZM157.063 8.70708C157.063 6.62361 155.769 5.48552 153.951 5.48552C152.132 5.48552 150.86 6.62725 150.86 8.70708C150.86 10.7869 152.154 11.8632 153.951 11.8632C155.747 11.8632 157.063 10.7215 157.063 8.70708Z" fill="#666666"/>
</g>
</g>
</g>
</svg>
