<svg width="16" height="17" viewBox="0 0 16 17" fill="none" xmlns="http://www.w3.org/2000/svg">
<g id="star">
<path id="Icon" fill-rule="evenodd" clip-rule="evenodd" d="M6.60727 2.1382C7.11019 0.880993 8.88984 0.881023 9.3927 2.13826L10.6935 5.39042L14.2224 5.61098C15.5425 5.69349 16.1175 7.32002 15.1424 8.21379L12.4556 10.6768L13.3242 13.9342C13.6675 15.2215 12.2874 16.2841 11.1306 15.6231L7.99999 13.8341L4.86907 15.6232C3.71233 16.2841 2.33225 15.2216 2.67553 13.9343L3.5442 10.6768L0.857305 8.21379C-0.117713 7.32002 0.457215 5.69349 1.77732 5.61098L5.3063 5.39042L6.60727 2.1382ZM7.99995 4.0416L7.04579 6.42684C6.83061 6.96476 6.32488 7.33066 5.74665 7.3668L3.07524 7.53376L5.11896 9.40717C5.53074 9.78463 5.69865 10.3596 5.55472 10.8994L4.91655 13.2925L7.25581 11.9559C7.71696 11.6923 8.28308 11.6924 8.74422 11.9559L11.0832 13.2925L10.445 10.8994C10.3011 10.3596 10.469 9.78463 10.8808 9.40717L12.9245 7.53376L10.2531 7.3668C9.67486 7.33066 9.16912 6.96473 8.95395 6.42678L7.99995 4.0416Z" fill="#666666"/>
</g>
</svg>
