<svg width="72" height="72" viewBox="0 0 72 72" fill="none" xmlns="http://www.w3.org/2000/svg">
<g id="team-member">
<g id="Icon">
<path fill-rule="evenodd" clip-rule="evenodd" d="M9.37449 14.9746C9.37449 10.0731 13.348 6.09961 18.2495 6.09961C23.151 6.09961 27.1245 10.0731 27.1245 14.9746C27.1245 19.8761 23.151 23.8496 18.2495 23.8496C13.348 23.8496 9.37449 19.8761 9.37449 14.9746Z" fill="#04C8B6"/>
<path fill-rule="evenodd" clip-rule="evenodd" d="M44.8745 14.9746C44.8745 10.0731 48.848 6.09961 53.7495 6.09961C58.651 6.09961 62.6245 10.0731 62.6245 14.9746C62.6245 19.8761 58.651 23.8496 53.7495 23.8496C48.848 23.8496 44.8745 19.8761 44.8745 14.9746Z" fill="#04C8B6"/>
<path fill-rule="evenodd" clip-rule="evenodd" d="M24.166 35.6829C24.166 29.1476 29.4639 23.8496 35.9993 23.8496C42.5347 23.8496 47.8326 29.1476 47.8326 35.6829C47.8326 42.2183 42.5347 47.5163 35.9993 47.5163C29.4639 47.5163 24.166 42.2183 24.166 35.6829Z" fill="#04C8B6"/>
<path d="M4.05098 33.9045C7.28438 29.6009 12.4412 26.8079 18.2495 26.8079H21.2078V32.7246H18.2495C14.3805 32.7246 10.9453 34.5783 8.78132 37.4585L7.00432 39.8237L2.27399 36.2697L4.05098 33.9045Z" fill="#04C8B6"/>
<path d="M50.7912 26.8079H53.7495C59.5585 26.8079 64.716 29.6016 67.9493 33.9062L69.726 36.2716L64.9952 39.825L63.2185 37.4597C61.0546 34.5788 57.619 32.7246 53.7495 32.7246H50.7912V26.8079Z" fill="#04C8B6"/>
<path d="M16.5741 60.6155C20.8458 54.4914 27.9521 50.4746 35.997 50.4746C44.0419 50.4746 51.1482 54.4914 55.4199 60.6155L57.1124 63.0419L52.2596 66.4268L50.5672 64.0004C47.3546 59.3947 42.0263 56.3913 35.997 56.3913C29.9677 56.3913 24.6394 59.3947 21.4268 64.0004L19.7344 66.4268L14.8816 63.0419L16.5741 60.6155Z" fill="#04C8B6"/>
</g>
</g>
</svg>
